RobotoSerifDisplay-SuperWidth300.ufo
<glyph name="period" format="2">
  <advance width="208.34"/>
  <unicode hex="002E"/>
  <outline>
    <contour>
      <point x="186.695" y="78.2" type="curve" smooth="yes"/>
      <point x="186.695" y="128.2"/>
      <point x="157.37" y="163.4"/>
      <point x="104.17" y="163.4" type="curve" smooth="yes"/>
      <point x="52.925" y="163.4"/>
      <point x="22.450000000000003" y="128.2"/>
      <point x="22.450000000000003" y="78.2" type="curve" smooth="yes"/>
      <point x="22.450000000000003" y="27.400000000000002"/>
      <point x="52.925" y="-7.8"/>
      <point x="104.17" y="-7.8" type="curve" smooth="yes"/>
      <point x="157.22" y="-7.8"/>
      <point x="186.695" y="27.400000000000002"/>
    </contour>
  </outline>
</glyph>
<glyph name="one" format="2">
  <advance width="422.8"/>
  <unicode hex="0031"/>
  <outline>
    <contour>
      <point x="335.90000000000003" y="77.4" type="curve" smooth="yes"/>
      <point x="335.90000000000003" y="609.0" type="line"/>
      <point x="219.75" y="609.0" type="line"/>
      <point x="171.0" y="549.4"/>
      <point x="134.405" y="523.0"/>
      <point x="25.324999999999996" y="522.8" type="curve"/>
      <point x="25.324999999999996" y="408.8" type="line"/>
      <point x="86.68" y="419.6"/>
      <point x="130.37" y="468.6"/>
      <point x="156.245" y="539.6" type="curve"/>
      <point x="156.59" y="538.6"/>
      <point x="141.41" y="539.8"/>
      <point x="141.905" y="538.4" type="curve"/>
      <point x="141.905" y="77.4" type="line" smooth="yes"/>
      <point x="141.905" y="45.6"/>
      <point x="103.425" y="39.2"/>
      <point x="61.345000000000006" y="39.2" type="curve" smooth="yes"/>
      <point x="40.77000000000001" y="39.2" type="line"/>
      <point x="40.77000000000001" y="0.0" type="line"/>
      <point x="426.11" y="0.0" type="line"/>
      <point x="426.11" y="39.2" type="line"/>
      <point x="416.185" y="39.2" type="line" smooth="yes"/>
      <point x="370.655" y="39.2"/>
      <point x="335.90000000000003" y="45.599999999999994"/>
    </contour>
  </outline>
</glyph>
<glyph name="six" format="2">
  <advance width="422.8"/>
  <unicode hex="0036"/>
  <outline>
    <contour>
      <point x="364.745" y="699.0" type="line"/>
      <point x="256.87" y="657.2"/>
      <point x="193.55999999999997" y="551.5188737541529"/>
      <point x="193.55999999999997" y="286.8" type="curve" smooth="yes"/>
      <point x="193.55999999999997" y="84.20763636363637"/>
      <point x="198.345" y="36.400000000000006"/>
      <point x="212.055" y="36.400000000000006" type="curve" smooth="yes"/>
      <point x="225.065" y="36.400000000000006"/>
      <point x="226.79" y="90.61177033492822"/>
      <point x="226.79" y="229.0" type="curve" smooth="yes"/>
      <point x="226.79" y="332.2236269430052"/>
      <point x="227.135" y="399.4"/>
      <point x="205.685" y="399.4" type="curve" smooth="yes"/>
      <point x="190.25" y="399.4"/>
      <point x="178.2567748336047" y="360.4281026518506"/>
      <point x="164.2" y="310.4" type="curve"/>
      <point x="164.05" y="312.6"/>
      <point x="160.14" y="349.6"/>
      <point x="160.485" y="350.8" type="curve"/>
      <point x="171.70295407773318" y="399.0258350483117"/>
      <point x="197.92" y="453.0"/>
      <point x="262.955" y="453.0" type="curve" smooth="yes"/>
      <point x="354.05" y="453.0"/>
      <point x="413.76" y="376.2224"/>
      <point x="413.76" y="236.2" type="curve" smooth="yes"/>
      <point x="413.76" y="82.2"/>
      <point x="336.915" y="-10.0"/>
      <point x="217.345" y="-10.0" type="curve" smooth="yes"/>
      <point x="90.28999999999999" y="-10.0"/>
      <point x="9.040000000000003" y="83.9799344262295"/>
      <point x="9.040000000000003" y="294.0" type="curve" smooth="yes"/>
      <point x="9.040000000000003" y="512.829393258427"/>
      <point x="151.0" y="697.2"/>
      <point x="358.845" y="740.0" type="curve"/>
    </contour>
  </outline>
</glyph>
<glyph name="seven" format="2">
  <advance width="422.8"/>
  <unicode hex="0037"/>
  <outline>
    <contour>
      <point x="143.365" y="471.4" type="line" smooth="yes"/>
      <point x="100.675" y="471.4"/>
      <point x="84.655" y="463.6"/>
      <point x="81.745" y="424.0" type="curve" smooth="yes"/>
      <point x="73.085" y="338.8" type="line"/>
      <point x="36.71" y="338.8" type="line"/>
      <point x="36.71" y="609.0" type="line"/>
      <point x="407.585" y="609.0" type="line"/>
      <point x="407.585" y="518.6" type="line"/>
      <point x="325.265" y="368.2"/>
      <point x="284.15" y="201.2"/>
      <point x="287.3" y="-77.0" type="curve"/>
      <point x="107.26500000000001" y="-77.0" type="line"/>
      <point x="139.5" y="202.6"/>
      <point x="290.19" y="429.8"/>
      <point x="350.015" y="494.8" type="curve"/>
      <point x="355.155" y="471.4" type="line"/>
    </contour>
  </outline>
</glyph>
<glyph name="question" format="2">
  <advance width="453.275"/>
  <unicode hex="003F"/>
  <outline>
    <contour>
      <point x="172.195" y="373.8" type="line"/>
      <point x="233.51191059350896" y="412.801691043553"/>
      <point x="248.905" y="463.8198"/>
      <point x="248.905" y="563.6" type="curve" smooth="yes"/>
      <point x="248.905" y="645.309090909091"/>
      <point x="236.955" y="694.6"/>
      <point x="195.495" y="694.6" type="curve" smooth="yes"/>
      <point x="181.9" y="694.6"/>
      <point x="163.165" y="680.8"/>
      <point x="149.1" y="656.2" type="curve"/>
      <point x="148.95" y="659.8"/>
      <point x="167.19" y="693.8"/>
      <point x="164.385" y="694.8" type="curve"/>
      <point x="164.385" y="549.8" type="line"/>
      <point x="23.185000000000002" y="549.8" type="line"/>
      <point x="23.185000000000002" y="666.2" type="line"/>
      <point x="48.635000000000005" y="695.8"/>
      <point x="116.51" y="741.0"/>
      <point x="221.06" y="741.0" type="curve" smooth="yes"/>
      <point x="372.61" y="741.0"/>
      <point x="437.76" y="662.7216326530612"/>
      <point x="437.76" y="551.8" type="curve" smooth="yes"/>
      <point x="437.76" y="419.4248181818182"/>
      <point x="327.2272104068145" y="374.0012886309728"/>
      <point x="240.115" y="344.4" type="curve"/>
      <point x="240.115" y="251.2" type="line"/>
      <point x="172.195" y="251.2" type="line"/>
    </contour>
    <component base="period" xOffset="58.949999999999996" yOffset="-0.2"/>
  </outline>
</glyph>
<glyph name="F" format="2">
  <advance width="482"/>
  <unicode hex="0046"/>
  <outline>
    <contour>
      <point x="266.69" y="661.4" type="line"/>
      <point x="352.725" y="661.4" type="line" smooth="yes"/>
      <point x="385.64" y="661.4"/>
      <point x="407.59499999999997" y="651.4"/>
      <point x="413.495" y="615.8" type="curve" smooth="yes"/>
      <point x="430.09000000000003" y="521.6" type="line"/>
      <point x="466.465" y="521.6" type="line"/>
      <point x="466.465" y="710.0" type="line"/>
      <point x="14.825" y="710.0" type="line"/>
      <point x="14.825" y="670.4" type="line"/>
      <point x="23.22" y="670.4" type="line" smooth="yes"/>
      <point x="39.894999999999996" y="670.4"/>
      <point x="51.535000000000004" y="663.4"/>
      <point x="51.535000000000004" y="634.4" type="curve" smooth="yes"/>
      <point x="51.535000000000004" y="75.6" type="line" smooth="yes"/>
      <point x="51.535000000000004" y="46.6"/>
      <point x="39.849999999999994" y="39.6"/>
      <point x="23.22" y="39.6" type="curve" smooth="yes"/>
      <point x="14.825" y="39.6" type="line"/>
      <point x="14.825" y="0.0" type="line"/>
      <point x="318.03999999999996" y="0.0" type="line"/>
      <point x="318.03999999999996" y="39.6" type="line"/>
      <point x="305.39" y="39.6" type="line" smooth="yes"/>
      <point x="288.22" y="39.6"/>
      <point x="266.69" y="41.0"/>
      <point x="266.69" y="73.6" type="curve" smooth="yes"/>
    </contour>
    <contour>
      <point x="243.92000000000002" y="378.8" type="curve"/>
      <point x="243.92000000000002" y="336.8" type="line"/>
      <point x="316.83998787046903" y="332.40017789279614"/>
      <point x="368.6582645007139" y="323.1874543731219"/>
      <point x="417.03499999999997" y="306.6" type="curve"/>
      <point x="417.03499999999997" y="408.6" type="line"/>
      <point x="368.64982899227397" y="393.21040732986336"/>
      <point x="316.8351999567549" y="384.7995130413294"/>
    </contour>
  </outline>
</glyph>
<glyph name="b" format="2">
  <advance width="528"/>
  <unicode hex="0062"/>
  <outline>
    <contour>
      <point x="329.46" y="-10.0" type="curve" smooth="yes"/>
      <point x="434.575" y="-10.0"/>
      <point x="508.775" y="104.4"/>
      <point x="508.775" y="267.8" type="curve" smooth="yes"/>
      <point x="508.775" y="427.6"/>
      <point x="446.995" y="532.8"/>
      <point x="347.895" y="532.8" type="curve" smooth="yes"/>
      <point x="288.68" y="532.8"/>
      <point x="242.84" y="498.6"/>
      <point x="200.34499999999997" y="409.8" type="curve"/>
      <point x="200.34499999999997" y="326.8" type="line"/>
      <point x="232.95" y="420.8"/>
      <point x="255.18" y="457.4"/>
      <point x="272.57" y="457.4" type="curve" smooth="yes"/>
      <point x="295.63" y="457.4"/>
      <point x="301.945" y="405.8"/>
      <point x="301.945" y="267.8" type="curve" smooth="yes"/>
      <point x="301.945" y="121.6"/>
      <point x="293.48" y="55.0"/>
      <point x="265.175" y="55.0" type="curve" smooth="yes"/>
      <point x="237.46999999999997" y="55.0"/>
      <point x="223.17499999999998" y="95.6"/>
      <point x="200.34499999999997" y="241.0" type="curve"/>
      <point x="200.34499999999997" y="80.8" type="line"/>
      <point x="217.23999999999998" y="20.0"/>
      <point x="248.85500000000002" y="-10.0"/>
    </contour>
    <contour>
      <point x="31.075" y="681.8" type="curve" smooth="yes"/>
      <point x="31.075" y="-1.3999999999999997" type="line"/>
      <point x="168.79999999999998" y="-1.3999999999999997" type="line"/>
      <point x="216.28499999999997" y="87.8" type="line"/>
      <point x="233.5" y="85.6" type="line"/>
      <point x="233.5" y="750.0" type="line"/>
      <point x="10.995" y="750.0" type="line"/>
      <point x="10.995" y="712.0" type="line"/>
      <point x="18.745" y="710.0" type="line" smooth="yes"/>
      <point x="28.245" y="705.0"/>
      <point x="31.075" y="700.4"/>
    </contour>
  </outline>
</glyph>
<glyph name="g" format="2">
  <advance width="500"/>
  <unicode hex="0067"/>
  <outline>
    <contour>
      <point x="228.42" y="214.6" type="curve" smooth="yes"/>
      <point x="212.1" y="214.6"/>
      <point x="204.9" y="244.49142857142857"/>
      <point x="204.9" y="347.8" type="curve" smooth="yes"/>
      <point x="204.9" y="451.7004651162791"/>
      <point x="212.09999999999997" y="484.0"/>
      <point x="228.42" y="484.0" type="curve" smooth="yes"/>
      <point x="246.085" y="484.0"/>
      <point x="253.04500000000002" y="451.7004651162791"/>
      <point x="253.04500000000002" y="347.8" type="curve" smooth="yes"/>
      <point x="253.04500000000002" y="244.49142857142857"/>
      <point x="246.23499999999999" y="214.6"/>
    </contour>
    <contour>
      <point x="228.42" y="169.8" type="curve" smooth="yes"/>
      <point x="354.28999999999996" y="169.8"/>
      <point x="435.505" y="237.0259090909091"/>
      <point x="435.505" y="349.4" type="curve" smooth="yes"/>
      <point x="435.505" y="461.564"/>
      <point x="354.28999999999996" y="532.8"/>
      <point x="228.42" y="532.8" type="curve" smooth="yes"/>
      <point x="103.7" y="532.8"/>
      <point x="23.830000000000002" y="461.564"/>
      <point x="23.830000000000002" y="349.4" type="curve" smooth="yes"/>
      <point x="23.830000000000002" y="237.0259090909091"/>
      <point x="101.4" y="169.8"/>
    </contour>
    <contour>
      <point x="374.79499999999996" y="432.6" type="line"/>
      <point x="401.43" y="443.0"/>
      <point x="447.79999999999995" y="446.8"/>
      <point x="496.93" y="431.0" type="curve"/>
      <point x="496.93" y="541.2" type="line"/>
      <point x="440.83000000000004" y="551.2"/>
      <point x="405.18" y="515.6"/>
      <point x="376.325" y="454.0" type="curve"/>
    </contour>
    <contour>
      <point x="247.66" y="-239.2" type="line" smooth="yes"/>
      <point x="395.025" y="-239.2"/>
      <point x="491.455" y="-173.4"/>
      <point x="491.455" y="-41.599999999999994" type="curve" smooth="yes"/>
      <point x="491.455" y="55.60000000000001"/>
      <point x="431.58500000000004" y="102.80000000000001"/>
      <point x="322.585" y="102.80000000000001" type="curve" smooth="yes"/>
      <point x="160.89" y="102.80000000000001" type="line" smooth="yes"/>
      <point x="134.865" y="102.80000000000001"/>
      <point x="126.13499999999999" y="113.2"/>
      <point x="126.13499999999999" y="136.2" type="curve" smooth="yes"/>
      <point x="126.13499999999999" y="162.0"/>
      <point x="142.995" y="180.6"/>
      <point x="177.14" y="195.8" type="curve"/>
      <point x="123.755" y="211.6" type="line"/>
      <point x="63.575" y="186.2"/>
      <point x="14.02" y="137.8"/>
      <point x="14.02" y="71.6" type="curve" smooth="yes"/>
      <point x="14.02" y="8.999999999999993"/>
      <point x="47.325" y="-28.0"/>
      <point x="101.78999999999999" y="-49.0" type="curve"/>
      <point x="107.77" y="-68.4" type="line"/>
      <point x="322.63" y="-68.4" type="line" smooth="yes"/>
      <point x="342.815" y="-68.4"/>
      <point x="358.91499999999996" y="-83.4"/>
      <point x="358.91499999999996" y="-114.6" type="curve" smooth="yes"/>
      <point x="358.91499999999996" y="-160.4"/>
      <point x="334.155" y="-192.4"/>
      <point x="233.435" y="-192.4" type="curve" smooth="yes"/>
      <point x="213.97500000000002" y="-192.4" type="line" smooth="yes"/>
      <point x="134.45000000000002" y="-192.4"/>
      <point x="108.61999999999999" y="-166.8"/>
      <point x="108.61999999999999" y="-116.8" type="curve" smooth="yes"/>
      <point x="108.61999999999999" y="-90.80000000000001"/>
      <point x="116.29322488920533" y="-62.96710263952547"/>
      <point x="140.615" y="-46.800000000000004" type="curve"/>
      <point x="139.59" y="-26.400000000000006" type="line"/>
      <point x="25.692574040733668" y="-47.26972346541384"/>
      <point x="-9.244999999999997" y="-78.80000000000001"/>
      <point x="-9.244999999999997" y="-132.2" type="curve" smooth="yes"/>
      <point x="-9.244999999999997" y="-209.6"/>
      <point x="72.92805755395685" y="-239.2"/>
      <point x="197.91" y="-239.2" type="curve" smooth="yes"/>
    </contour>
  </outline>
</glyph>
<glyph name="h" format="2">
  <advance width="522"/>
  <unicode hex="0068"/>
  <outline>
    <contour>
      <point x="517.585" y="0.0" type="line"/>
      <point x="517.585" y="37.2" type="line"/>
      <point x="516.135" y="37.2" type="line" smooth="yes"/>
      <point x="505.28999999999996" y="37.2"/>
      <point x="496.905" y="41.0"/>
      <point x="496.905" y="62.8" type="curve" smooth="yes"/>
      <point x="496.905" y="355.8" type="line" smooth="yes"/>
      <point x="496.905" y="470.8"/>
      <point x="443.28" y="532.8"/>
      <point x="360.845" y="532.8" type="curve" smooth="yes"/>
      <point x="293.19999999999993" y="532.8"/>
      <point x="240.07999999999998" y="487.4"/>
      <point x="218.09" y="414.4" type="curve"/>
      <point x="218.09" y="334.8" type="line"/>
      <point x="232.34" y="410.4"/>
      <point x="255.01999999999998" y="445.4"/>
      <point x="275.28499999999997" y="445.4" type="curve" smooth="yes"/>
      <point x="292.34000000000003" y="445.4"/>
      <point x="294.48" y="424.2"/>
      <point x="294.48" y="379.8" type="curve" smooth="yes"/>
      <point x="294.48" y="45.6" type="line" smooth="yes"/>
      <point x="294.48" y="39.4"/>
      <point x="284.785" y="37.2"/>
      <point x="277.355" y="37.2" type="curve" smooth="yes"/>
      <point x="277.01" y="37.2" type="line"/>
      <point x="277.01" y="0.0" type="line"/>
    </contour>
    <contour>
      <point x="233.53500000000003" y="750.0" type="line"/>
      <point x="9.88" y="750.0" type="line"/>
      <point x="9.88" y="712.0" type="line"/>
      <point x="16.48" y="710.0" type="line" smooth="yes"/>
      <point x="28.385000000000005" y="705.2"/>
      <point x="30.305" y="699.6"/>
      <point x="30.305" y="682.6" type="curve" smooth="yes"/>
      <point x="30.305" y="62.8" type="line" smooth="yes"/>
      <point x="30.305" y="41.0"/>
      <point x="21.725" y="37.2"/>
      <point x="10.879999999999999" y="37.2" type="curve" smooth="yes"/>
      <point x="9.880000000000003" y="37.2" type="line"/>
      <point x="9.880000000000003" y="0.0" type="line"/>
      <point x="251.10999999999999" y="0.0" type="line"/>
      <point x="251.10999999999999" y="37.2" type="line"/>
      <point x="250.765" y="37.2" type="line" smooth="yes"/>
      <point x="240.425" y="37.2"/>
      <point x="233.53500000000003" y="40.4"/>
      <point x="233.53500000000003" y="57.6" type="curve" smooth="yes"/>
    </contour>
  </outline>
</glyph>
<glyph name="o" format="2">
  <advance width="512"/>
  <unicode hex="006F"/>
  <outline>
    <contour>
      <point x="255.94" y="-10.0" type="curve" smooth="yes"/>
      <point x="408.365" y="-10.0"/>
      <point x="496.205" y="99.22453531598426"/>
      <point x="496.205" y="261.2" type="curve" smooth="yes"/>
      <point x="496.205" y="423.22479704798"/>
      <point x="408.365" y="532.8"/>
      <point x="255.94" y="532.8" type="curve" smooth="yes"/>
      <point x="103.515" y="532.8"/>
      <point x="15.675" y="423.2"/>
      <point x="15.675" y="261.2" type="curve" smooth="yes"/>
      <point x="15.675" y="99.24907063197026"/>
      <point x="103.515" y="-10.0"/>
    </contour>
    <contour>
      <point x="255.94" y="36.4" type="curve" smooth="yes"/>
      <point x="232.26999999999998" y="36.4"/>
      <point x="221.7" y="91.8"/>
      <point x="221.7" y="261.2" type="curve" smooth="yes"/>
      <point x="221.7" y="430.8"/>
      <point x="232.26999999999998" y="486.4"/>
      <point x="255.94" y="486.4" type="curve" smooth="yes"/>
      <point x="279.61" y="486.4"/>
      <point x="290.18" y="430.82460251046"/>
      <point x="290.18" y="261.2" type="curve" smooth="yes"/>
      <point x="290.18" y="91.77544303799999"/>
      <point x="279.61" y="36.4"/>
    </contour>
  </outline>
</glyph>
<glyph name="s" format="2">
  <advance width="417.98"/>
  <unicode hex="0073"/>
  <outline>
    <contour>
      <point x="244.51" y="104.6" type="curve" smooth="yes"/>
      <point x="244.51" y="59.6"/>
      <point x="219.77988" y="34.800000000000004"/>
      <point x="179.70499999999998" y="34.800000000000004" type="curve" smooth="yes"/>
      <point x="155.105" y="34.800000000000004"/>
      <point x="128.975" y="45.2"/>
      <point x="111.38" y="69.6" type="curve"/>
      <point x="113.14999999999999" y="48.8"/>
      <point x="120.35" y="34.0"/>
      <point x="133.45999999999998" y="21.6" type="curve"/>
      <point x="133.45999999999998" y="149.6" type="line"/>
      <point x="8.695" y="149.6" type="line"/>
      <point x="8.695" y="43.4" type="line"/>
      <point x="28.51" y="23.8"/>
      <point x="96.12" y="-10.0"/>
      <point x="186.49" y="-10.0" type="curve" smooth="yes"/>
      <point x="334.625" y="-10.0"/>
      <point x="409.28499999999997" y="56.0"/>
      <point x="409.28499999999997" y="174.4" type="curve" smooth="yes"/>
      <point x="409.28499999999997" y="284.5185964912281"/>
      <point x="330.21999999999997" y="318.2"/>
      <point x="264.575" y="341.6" type="curve" smooth="yes"/>
      <point x="193.66500000000002" y="366.0"/>
      <point x="165.95999999999998" y="379.28444444444443"/>
      <point x="165.95999999999998" y="427.0" type="curve" smooth="yes"/>
      <point x="165.95999999999998" y="463.4"/>
      <point x="184.99292465156793" y="488.0"/>
      <point x="221.415" y="488.0" type="curve" smooth="yes"/>
      <point x="245.2892" y="488.0"/>
      <point x="262.485" y="479.4"/>
      <point x="275.94" y="461.4" type="curve"/>
      <point x="294.26" y="478.0"/>
      <point x="289.78499999999997" y="497.0"/>
      <point x="262.955" y="501.2" type="curve"/>
      <point x="262.955" y="389.4" type="line"/>
      <point x="381.085" y="389.4" type="line"/>
      <point x="381.085" y="484.6" type="line"/>
      <point x="367.435" y="499.4"/>
      <point x="313.9" y="532.8"/>
      <point x="214.975" y="532.8" type="curve" smooth="yes"/>
      <point x="99.47331460674157" y="532.8"/>
      <point x="16.009999999999998" y="475.2"/>
      <point x="16.009999999999998" y="363.4" type="curve" smooth="yes"/>
      <point x="16.009999999999998" y="245.6"/>
      <point x="89.95508229028945" y="211.99815888612105"/>
      <point x="150.84" y="190.6" type="curve" smooth="yes"/>
      <point x="216.08938307432265" y="167.79316046184604"/>
      <point x="244.51" y="153.39999999999998"/>
    </contour>
  </outline>
</glyph>
<glyph name="acute" format="2">
  <advance width="377.5"/>
  <unicode hex="00B4"/>
  <anchor x="163.8" y="527.0" name="_top"/>
  <outline>
    <contour>
      <point x="153.405" y="685.8" type="curve" smooth="yes"/>
      <point x="137.925" y="585.8" type="line"/>
      <point x="137.925" y="557.6" type="line"/>
      <point x="197.185" y="557.6" type="line"/>
      <point x="249.95999999999998" y="610.2" type="line" smooth="yes"/>
      <point x="295.03999999999996" y="639.8"/>
      <point x="315.92499999999995" y="673.6"/>
      <point x="315.92499999999995" y="713.2" type="curve" smooth="yes"/>
      <point x="315.92499999999995" y="751.2"/>
      <point x="287.59999999999997" y="781.0"/>
      <point x="244.75" y="781.0" type="curve" smooth="yes"/>
      <point x="193.965" y="781.0"/>
      <point x="166.745" y="745.8"/>
    </contour>
  </outline>
</glyph>
<glyph name="paragraph" format="2">
  <advance width="505.06"/>
  <unicode hex="00B6"/>
  <outline>
    <contour>
      <point x="489.54499999999996" y="710.0" type="line"/>
      <point x="489.54499999999996" y="638.4" type="line"/>
      <point x="481.15" y="638.4" type="line" smooth="yes"/>
      <point x="464.475" y="638.4"/>
      <point x="452.835" y="631.4"/>
      <point x="452.835" y="602.4" type="curve" smooth="yes"/>
      <point x="452.835" y="0.0" type="line"/>
      <point x="341.4" y="0.0" type="line"/>
      <point x="341.4" y="710.0" type="line"/>
    </contour>
    <contour>
      <point x="308.3" y="0.0" type="line"/>
      <point x="196.76" y="0.0" type="line"/>
      <point x="196.76" y="297.0" type="line"/>
      <point x="192.355" y="297.0" type="line" smooth="yes"/>
      <point x="77.755" y="297.0"/>
      <point x="6.43" y="384.6"/>
      <point x="6.43" y="509.0" type="curve" smooth="yes"/>
      <point x="6.43" y="631.4"/>
      <point x="74.455" y="710.0"/>
      <point x="188.86" y="710.0" type="curve" smooth="yes"/>
      <point x="308.3" y="710.0" type="line"/>
    </contour>
    <contour>
      <point x="366.93" y="710.0" type="line"/>
      <point x="366.93" y="638.0" type="line"/>
      <point x="240.91" y="638.0" type="line"/>
      <point x="240.91" y="710.0" type="line"/>
    </contour>
  </outline>
</glyph>
<glyph name="thorn" format="2">
  <advance width="527.475"/>
  <unicode hex="00FE"/>
  <outline>
    <contour>
      <point x="9.88" y="-223.0" type="line"/>
      <point x="272.58" y="-223.0" type="line"/>
      <point x="272.58" y="-156.2" type="line"/>
      <point x="272.51" y="-156.2" type="line"/>
      <point x="256.56" y="-156.2"/>
      <point x="233.53500000000003" y="-154.0"/>
      <point x="233.53500000000003" y="-147.8" type="curve"/>
      <point x="233.53500000000003" y="734.0" type="line"/>
      <point x="9.88" y="734.0" type="line"/>
      <point x="9.88" y="664.0" type="line"/>
      <point x="14.985000000000001" y="662.0" type="line" smooth="yes"/>
      <point x="27.235000000000007" y="655.6"/>
      <point x="30.305000000000007" y="650.8"/>
      <point x="30.305000000000007" y="632.2" type="curve" smooth="yes"/>
      <point x="30.305000000000007" y="-128.2" type="line" smooth="yes"/>
      <point x="30.305000000000007" y="-150.0"/>
      <point x="21.725" y="-156.2"/>
      <point x="10.880000000000003" y="-156.2" type="curve" smooth="yes"/>
      <point x="9.88" y="-156.2" type="line"/>
    </contour>
    <contour>
      <point x="301.98" y="262.2" type="curve" smooth="yes"/>
      <point x="301.98" y="153.6"/>
      <point x="293.515" y="86.00000000000001"/>
      <point x="264.405" y="86.00000000000001" type="curve" smooth="yes"/>
      <point x="234.895" y="86.00000000000001"/>
      <point x="226.97" y="133.4"/>
      <point x="214.48" y="200.6" type="curve"/>
      <point x="214.675" y="200.2"/>
      <point x="169.59499999999997" y="152.2"/>
      <point x="170.32999999999998" y="151.8" type="curve"/>
      <point x="198.115" y="36.6"/>
      <point x="243.91000000000003" y="-13.4"/>
      <point x="332.485" y="-13.4" type="curve" smooth="yes"/>
      <point x="435.19499999999994" y="-13.4"/>
      <point x="508.005" y="100.4"/>
      <point x="508.005" y="262.2" type="curve" smooth="yes"/>
      <point x="508.005" y="420.4"/>
      <point x="443.13" y="524.8"/>
      <point x="338.03999999999996" y="524.8" type="curve" smooth="yes"/>
      <point x="263.575" y="524.8"/>
      <point x="230.15499999999997" y="466.2"/>
      <point x="189.845" y="351.4" type="curve"/>
      <point x="189.10999999999999" y="350.8"/>
      <point x="216.90499999999997" y="299.2"/>
      <point x="215.47999999999996" y="298.6" type="curve"/>
      <point x="234.60500000000002" y="375.0"/>
      <point x="246.06" y="425.4"/>
      <point x="270.305" y="425.4" type="curve" smooth="yes"/>
      <point x="293.71" y="425.4"/>
      <point x="301.98" y="368.2"/>
    </contour>
  </outline>
</glyph>
<glyph name="eogonek" format="2">
  <advance width="470.41999999999996"/>
  <unicode hex="0119"/>
  <outline>
    <contour>
      <point x="364.71" y="39.8" type="line"/>
      <point x="227.88" y="-12.4"/>
      <point x="165.26" y="-57.8"/>
      <point x="165.26" y="-138.6" type="curve" smooth="yes"/>
      <point x="165.26" y="-207.6"/>
      <point x="210.79" y="-244.0"/>
      <point x="279.895" y="-244.0" type="curve" smooth="yes"/>
      <point x="346.09000000000003" y="-244.0"/>
      <point x="383.455" y="-214.6"/>
      <point x="412.39" y="-170.8" type="curve"/>
      <point x="372.645" y="-125.4" type="line"/>
      <point x="365.48" y="-136.0"/>
      <point x="352.875" y="-154.0"/>
      <point x="333.13" y="-154.0" type="curve" smooth="yes"/>
      <point x="316.46500000000003" y="-154.0"/>
      <point x="306.61" y="-139.2"/>
      <point x="306.61" y="-109.2" type="curve" smooth="yes"/>
      <point x="306.61" y="-69.8"/>
      <point x="325.125" y="-34.2"/>
      <point x="384.49" y="29.2" type="curve" smooth="yes"/>
      <point x="410.93" y="54.8"/>
      <point x="429.67499999999995" y="79.6"/>
      <point x="445.615" y="119.4" type="curve"/>
      <point x="381.79999999999995" y="163.2" type="line"/>
      <point x="365.585" y="116.6"/>
      <point x="339.11" y="73.2"/>
      <point x="293.625" y="73.2" type="curve" smooth="yes"/>
      <point x="228.24499999999998" y="73.2"/>
      <point x="218.05499999999995" y="136.2"/>
      <point x="218.05499999999995" y="254.0" type="curve" smooth="yes"/>
      <point x="218.05499999999995" y="391.2"/>
      <point x="227.73999999999998" y="442.4"/>
      <point x="246.785" y="442.4" type="curve" smooth="yes"/>
      <point x="267.73" y="442.4"/>
      <point x="273.825" y="406.2"/>
      <point x="275.93" y="273.4" type="curve"/>
      <point x="288.995" y="304.4" type="line"/>
      <point x="110.22999999999999" y="304.4" type="line"/>
      <point x="110.08" y="230.4" type="line"/>
      <point x="457.19499999999994" y="230.4" type="line"/>
      <point x="457.0" y="425.6"/>
      <point x="382.27" y="524.8"/>
      <point x="241.495" y="524.8" type="curve" smooth="yes"/>
      <point x="109.0" y="524.8"/>
      <point x="15.675000000000002" y="418.0"/>
      <point x="15.675000000000002" y="254.4" type="curve" smooth="yes"/>
      <point x="15.675000000000002" y="88.2"/>
      <point x="102.48" y="-13.2"/>
      <point x="255.59499999999997" y="-13.2" type="curve" smooth="yes"/>
      <point x="297.985" y="-13.2"/>
      <point x="333.775" y="-1.3999999999999995"/>
      <point x="361.56999999999994" y="18.2" type="curve"/>
    </contour>
  </outline>
</glyph>
<glyph name="hbar" format="2">
  <advance width="521.955"/>
  <unicode hex="0127"/>
  <outline>
    <contour>
      <point x="517.585" y="0.0" type="line"/>
      <point x="517.585" y="66.80000000000001" type="line"/>
      <point x="516.135" y="66.80000000000001" type="line" smooth="yes"/>
      <point x="505.28999999999996" y="66.80000000000001"/>
      <point x="496.905" y="73.0"/>
      <point x="496.905" y="94.80000000000001" type="curve"/>
      <point x="496.905" y="347.8" type="line" smooth="yes"/>
      <point x="496.905" y="462.8"/>
      <point x="443.28" y="524.8"/>
      <point x="360.84499999999997" y="524.8" type="curve" smooth="yes"/>
      <point x="294.58000000000004" y="524.8"/>
      <point x="244.45" y="476.0"/>
      <point x="224.29999999999998" y="407.0" type="curve"/>
      <point x="231.96" y="331.8" type="line"/>
      <point x="241.11499999999998" y="384.2"/>
      <point x="256.71" y="417.4"/>
      <point x="274.135" y="417.4" type="curve" smooth="yes"/>
      <point x="291.19" y="417.4"/>
      <point x="294.48" y="398.6"/>
      <point x="294.48" y="355.8" type="curve" smooth="yes"/>
      <point x="294.48" y="75.2" type="line" smooth="yes"/>
      <point x="294.48" y="69.0"/>
      <point x="284.785" y="66.80000000000001"/>
      <point x="277.355" y="66.80000000000001" type="curve" smooth="yes"/>
      <point x="277.01" y="66.80000000000001" type="line"/>
      <point x="277.01" y="0.0" type="line"/>
    </contour>
    <contour>
      <point x="30.305000000000007" y="734.0" type="line"/>
      <point x="30.305000000000007" y="94.80000000000001" type="line"/>
      <point x="30.305000000000007" y="73.0"/>
      <point x="21.725" y="66.80000000000001"/>
      <point x="10.880000000000003" y="66.80000000000001" type="curve" smooth="yes"/>
      <point x="9.88" y="66.80000000000001" type="line"/>
      <point x="9.88" y="0.0" type="line"/>
      <point x="251.10999999999999" y="0.0" type="line"/>
      <point x="251.10999999999999" y="66.80000000000001" type="line"/>
      <point x="248.46499999999997" y="66.80000000000001" type="line" smooth="yes"/>
      <point x="244.21999999999997" y="66.80000000000001"/>
      <point x="233.53500000000003" y="69.2"/>
      <point x="233.53500000000003" y="75.2" type="curve"/>
      <point x="233.53500000000003" y="734.0" type="line"/>
    </contour>
    <contour>
      <point x="336.995" y="652.2" type="line"/>
      <point x="3.2200000000000006" y="652.2" type="line"/>
      <point x="3.2200000000000006" y="569.8" type="line"/>
      <point x="336.995" y="569.8" type="line"/>
    </contour>
  </outline>
</glyph>
<glyph name="oogonek" format="2">
  <advance width="511.88"/>
  <unicode hex="01EB"/>
  <outline>
    <contour>
      <point x="255.94" y="69.2" type="curve" smooth="yes"/>
      <point x="232.26999999999998" y="69.2"/>
      <point x="221.70000000000002" y="129.4"/>
      <point x="221.70000000000002" y="255.6" type="curve" smooth="yes"/>
      <point x="221.70000000000002" y="382.0"/>
      <point x="232.26999999999998" y="442.4"/>
      <point x="255.94" y="442.4" type="curve" smooth="yes"/>
      <point x="279.61" y="442.4"/>
      <point x="290.18" y="382.0"/>
      <point x="290.18" y="255.6" type="curve" smooth="yes"/>
      <point x="290.18" y="129.4"/>
      <point x="279.61" y="69.2"/>
    </contour>
    <contour>
      <point x="287.015" y="-244.0" type="curve" smooth="yes"/>
      <point x="353.21000000000004" y="-244.0"/>
      <point x="391.275" y="-214.6"/>
      <point x="419.405" y="-170.8" type="curve"/>
      <point x="379.65999999999997" y="-125.4" type="line"/>
      <point x="372.495" y="-136.0"/>
      <point x="359.995" y="-154.0"/>
      <point x="340.145" y="-154.0" type="curve" smooth="yes"/>
      <point x="323.58500000000004" y="-154.0"/>
      <point x="313.625" y="-139.2"/>
      <point x="313.625" y="-109.2" type="curve" smooth="yes"/>
      <point x="313.625" y="-59.4"/>
      <point x="360.465" y="-13.0"/>
      <point x="408.365" y="34.4" type="curve" smooth="yes"/>
      <point x="460.76" y="80.0"/>
      <point x="496.20500000000004" y="153.2"/>
      <point x="496.20500000000004" y="255.6" type="curve" smooth="yes"/>
      <point x="496.20500000000004" y="416.0"/>
      <point x="408.365" y="524.8"/>
      <point x="255.94" y="524.8" type="curve" smooth="yes"/>
      <point x="103.515" y="524.8"/>
      <point x="15.675000000000002" y="416.0"/>
      <point x="15.675000000000002" y="255.6" type="curve" smooth="yes"/>
      <point x="15.675000000000002" y="95.2"/>
      <point x="103.515" y="-13.2"/>
      <point x="255.94" y="-13.2" type="curve" smooth="yes"/>
      <point x="296.1" y="-13.2"/>
      <point x="331.75" y="-2.8"/>
      <point x="362.05499999999995" y="16.0" type="curve"/>
      <point x="372.22" y="43.6" type="line"/>
      <point x="236.23" y="-10.799999999999999"/>
      <point x="172.38" y="-60.8"/>
      <point x="172.38" y="-140.2" type="curve" smooth="yes"/>
      <point x="172.38" y="-207.6"/>
      <point x="217.91" y="-244.0"/>
    </contour>
  </outline>
</glyph>
<glyph name="tilde" format="2">
  <advance width="377.5"/>
  <unicode hex="02DC"/>
  <anchor x="188.4" y="516.0" name="_top"/>
  <outline>
    <contour>
      <point x="238.69" y="560.0" type="curve" smooth="yes"/>
      <point x="295.40999999999997" y="560.0"/>
      <point x="327.495" y="620.4"/>
      <point x="343.09" y="716.0" type="curve"/>
      <point x="266.05" y="743.6" type="line"/>
      <point x="259.15" y="706.4"/>
      <point x="253.94" y="686.8"/>
      <point x="236.035" y="686.8" type="curve" smooth="yes"/>
      <point x="207.653286713265" y="686.8"/>
      <point x="189.35250000003998" y="742.8"/>
      <point x="137.315" y="742.8" type="curve" smooth="yes"/>
      <point x="75.305" y="742.8"/>
      <point x="49.66000000000001" y="685.0"/>
      <point x="36.515" y="587.4" type="curve"/>
      <point x="113.44999999999999" y="561.6" type="line"/>
      <point x="119.5" y="599.4"/>
      <point x="124.215" y="617.8"/>
      <point x="141.27" y="617.8" type="curve" smooth="yes"/>
      <point x="165.934306569265" y="617.8"/>
      <point x="180.627253521015" y="560.0"/>
    </contour>
  </outline>
</glyph>
<glyph name="peseta" format="2">
  <advance width="422.8"/>
  <unicode hex="20A7"/>
  <outline>
    <contour>
      <point x="7.934999999999999" y="0.0" type="line"/>
      <point x="162.81" y="0.0" type="line"/>
      <point x="162.81" y="71.6" type="line"/>
      <point x="159.89999999999998" y="71.6" type="line" smooth="yes"/>
      <point x="149.89499999999998" y="71.6"/>
      <point x="138.625" y="74.6"/>
      <point x="138.625" y="80.0" type="curve" smooth="yes"/>
      <point x="138.625" y="255.0" type="line"/>
      <point x="140.545" y="255.0" type="line" smooth="yes"/>
      <point x="227.465" y="255.0"/>
      <point x="274.525" y="362.8"/>
      <point x="274.525" y="486.0" type="curve" smooth="yes"/>
      <point x="274.525" y="622.0"/>
      <point x="227.075" y="710.0"/>
      <point x="130.92" y="710.0" type="curve" smooth="yes"/>
      <point x="7.934999999999999" y="710.0" type="line"/>
      <point x="7.934999999999999" y="638.4" type="line"/>
      <point x="8.545" y="638.4" type="line" smooth="yes"/>
      <point x="15.065000000000001" y="638.4"/>
      <point x="19.080000000000005" y="633.8"/>
      <point x="19.080000000000005" y="612.8" type="curve" smooth="yes"/>
      <point x="19.080000000000005" y="97.2" type="line" smooth="yes"/>
      <point x="19.080000000000005" y="76.2"/>
      <point x="15.065000000000001" y="71.6"/>
      <point x="8.545" y="71.6" type="curve" smooth="yes"/>
      <point x="7.934999999999999" y="71.6" type="line"/>
    </contour>
    <contour>
      <point x="141.305" y="623.6" type="line" smooth="yes"/>
      <point x="151.495" y="623.6"/>
      <point x="156.775" y="576.3775"/>
      <point x="156.775" y="485.0" type="curve" smooth="yes"/>
      <point x="156.775" y="394.012"/>
      <point x="153.14" y="341.4"/>
      <point x="141.845" y="341.4" type="curve" smooth="yes"/>
      <point x="138.625" y="341.4" type="line"/>
      <point x="138.625" y="623.6" type="line"/>
    </contour>
    <contour>
      <point x="246.82" y="426.0" type="line"/>
      <point x="422.19" y="426.0" type="line"/>
      <point x="422.19" y="510.0" type="line"/>
      <point x="323.425" y="510.0" type="line"/>
      <point x="293.49" y="572.4" type="line"/>
      <point x="293.49" y="519.0"/>
      <point x="285.405" y="504.6"/>
      <point x="265.945" y="504.6" type="curve" smooth="yes"/>
      <point x="246.82" y="504.6" type="line"/>
    </contour>
    <contour>
      <point x="391.725" y="120.6" type="curve" smooth="yes"/>
      <point x="391.725" y="647.8" type="line"/>
      <point x="293.49" y="647.8" type="line"/>
      <point x="293.49" y="505.0" type="line"/>
      <point x="270.19" y="496.0" type="line"/>
      <point x="270.19" y="109.8" type="line" smooth="yes"/>
      <point x="270.19" y="20.6"/>
      <point x="312.89326923061" y="-11.0"/>
      <point x="374.315" y="-11.0" type="curve" smooth="yes"/>
      <point x="399.04" y="-11.0"/>
      <point x="411.495" y="-8.0"/>
      <point x="422.19" y="-3.2" type="curve"/>
      <point x="422.19" y="80.6" type="line"/>
      <point x="420.085" y="79.6"/>
      <point x="411.99" y="77.4"/>
      <point x="408.47" y="77.4" type="curve" smooth="yes"/>
      <point x="397.78499999999997" y="77.4"/>
      <point x="391.725" y="89.2"/>
    </contour>
  </outline>
</glyph>
<glyph name="Euro" format="2">
  <advance width="422.8"/>
  <unicode hex="20AC"/>
  <outline>
    <contour>
      <point x="6.015000000000002" y="467.8" type="line"/>
      <point x="6.015000000000002" y="385.4" type="line"/>
      <point x="333.54499999999996" y="385.4" type="line"/>
      <point x="333.54499999999996" y="467.8" type="line"/>
    </contour>
    <contour>
      <point x="6.015000000000002" y="312.0" type="line"/>
      <point x="6.015000000000002" y="229.6" type="line"/>
      <point x="304.425" y="229.6" type="line"/>
      <point x="304.425" y="312.0" type="line"/>
    </contour>
    <contour>
      <point x="257.85" y="-10.0" type="curve" smooth="yes"/>
      <point x="353.28" y="-10.0"/>
      <point x="400.685" y="62.6"/>
      <point x="423.03" y="162.0" type="curve"/>
      <point x="351.625" y="200.2" type="line"/>
      <point x="340.32" y="142.4"/>
      <point x="316.135" y="80.4"/>
      <point x="284.415" y="80.4" type="curve" smooth="yes"/>
      <point x="247.39499999999998" y="80.4"/>
      <point x="232.765" y="156.4190099009901"/>
      <point x="232.765" y="355.0" type="curve" smooth="yes"/>
      <point x="232.765" y="560.3730693069307"/>
      <point x="238.76999999999998" y="634.0"/>
      <point x="269.27" y="634.0" type="curve" smooth="yes"/>
      <point x="278.345" y="634.0"/>
      <point x="284.89" y="620.4"/>
      <point x="290.21500000000003" y="605.0" type="curve"/>
      <point x="315.135" y="619.4"/>
      <point x="322.83142029804" y="636.52149212208"/>
      <point x="273.47" y="650.4" type="curve"/>
      <point x="273.47" y="545.0" type="line"/>
      <point x="415.025" y="545.0" type="line"/>
      <point x="415.025" y="675.4" type="line"/>
      <point x="400.075" y="689.4"/>
      <point x="352.78499999999997" y="720.0"/>
      <point x="271.91499999999996" y="720.0" type="curve" smooth="yes"/>
      <point x="136.05" y="720.0"/>
      <point x="36.32000000000001" y="610.6"/>
      <point x="36.32000000000001" y="355.0" type="curve" smooth="yes"/>
      <point x="36.32000000000001" y="102.0"/>
      <point x="124.355" y="-10.0"/>
    </contour>
  </outline>
</glyph>
<glyph name="approxequal" format="2">
  <advance width="422.8"/>
  <unicode hex="2248"/>
  <outline>
    <contour>
      <point x="276.055" y="332.0" type="curve" smooth="yes"/>
      <point x="347.92" y="332.0"/>
      <point x="386.895" y="421.6"/>
      <point x="409.62" y="525.4" type="curve"/>
      <point x="319.16" y="550.8" type="line"/>
      <point x="312.455" y="515.8"/>
      <point x="302.99" y="471.6"/>
      <point x="273.825" y="471.6" type="curve" smooth="yes"/>
      <point x="239.23" y="471.6"/>
      <point x="211.94" y="550.8"/>
      <point x="146.135" y="550.8" type="curve" smooth="yes"/>
      <point x="65.84" y="550.8"/>
      <point x="33.605000000000004" y="469.6"/>
      <point x="13.52500000000001" y="360.8" type="curve"/>
      <point x="106.09" y="335.4" type="line"/>
      <point x="110.88499999999999" y="368.0"/>
      <point x="118.05" y="411.2"/>
      <point x="143.835" y="411.2" type="curve" smooth="yes"/>
      <point x="176.565" y="411.2"/>
      <point x="207.915" y="332.0"/>
    </contour>
    <contour>
      <point x="276.055" y="76.4" type="curve" smooth="yes"/>
      <point x="347.92" y="76.4"/>
      <point x="386.895" y="166.8"/>
      <point x="409.62" y="269.8" type="curve"/>
      <point x="319.16" y="295.2" type="line"/>
      <point x="312.455" y="260.2"/>
      <point x="302.99" y="216.0"/>
      <point x="273.825" y="216.0" type="curve" smooth="yes"/>
      <point x="239.23" y="216.0"/>
      <point x="211.94" y="295.2"/>
      <point x="146.135" y="295.2" type="curve" smooth="yes"/>
      <point x="65.84" y="295.2"/>
      <point x="33.605000000000004" y="214.0"/>
      <point x="13.52500000000001" y="106.0" type="curve"/>
      <point x="106.09" y="79.8" type="line"/>
      <point x="110.88499999999999" y="113.19999999999999"/>
      <point x="118.05" y="156.39999999999998"/>
      <point x="143.835" y="156.39999999999998" type="curve" smooth="yes"/>
      <point x="176.565" y="156.39999999999998"/>
      <point x="207.915" y="76.4"/>
    </contour>
  </outline>
</glyph>
<glyph name="uni25B8" format="2">
  <advance width="432.3"/>
  <unicode hex="25B8"/>
  <outline>
    <contour>
      <point x="97.8" y="10.0" type="line"/>
      <point x="379.8" y="277.0" type="line"/>
      <point x="97.8" y="545.0" type="line"/>
    </contour>
  </outline>
</glyph>
<glyph name="uni25BE" format="2">
  <advance width="486.8"/>
  <unicode hex="25BE"/>
  <outline>
    <contour>
      <point x="41.7" y="464.0" type="line"/>
      <point x="242.9" y="91.0" type="line"/>
      <point x="445.8" y="464.0" type="line"/>
    </contour>
  </outline>
</glyph>
<glyph name="lozenge" format="2">
  <advance width="477.68"/>
  <unicode hex="25CA"/>
  <outline>
    <contour>
      <point x="269.05" y="94.60000000000001" type="line"/>
      <point x="121.51" y="404.2" type="line"/>
      <point x="121.51" y="305.0" type="line"/>
      <point x="269.05" y="614.6" type="line"/>
      <point x="207.03" y="616.2" type="line"/>
      <point x="356.87" y="305.0" type="line"/>
      <point x="356.87" y="404.2" type="line"/>
      <point x="207.03" y="93.0" type="line"/>
    </contour>
    <contour>
      <point x="287.37" y="710.0" type="line"/>
      <point x="191.115" y="710.0" type="line"/>
      <point x="34.34" y="395.2" type="line"/>
      <point x="34.34" y="314.0" type="line"/>
      <point x="191.115" y="-0.8" type="line"/>
      <point x="287.37" y="-0.8" type="line"/>
      <point x="444.145" y="314.0" type="line"/>
      <point x="444.145" y="395.2" type="line"/>
    </contour>
  </outline>
</glyph>
<glyph name="blackcircle" format="2">
  <advance width="446.4"/>
  <outline>
    <contour>
      <point x="223.2" y="80.0" type="curve" smooth="yes"/>
      <point x="318.4" y="80.0"/>
      <point x="393.9" y="177.0"/>
      <point x="393.9" y="304.0" type="curve" smooth="yes"/>
      <point x="393.9" y="431.0"/>
      <point x="318.4" y="528.0"/>
      <point x="223.2" y="528.0" type="curve" smooth="yes"/>
      <point x="128.0" y="528.0"/>
      <point x="53.2" y="431.0"/>
      <point x="53.2" y="304.0" type="curve" smooth="yes"/>
      <point x="53.2" y="177.0"/>
      <point x="128.0" y="80.0"/>
    </contour>
  </outline>
</glyph>
<glyph name="blackuppointingtriangle" format="2">
  <advance width="486.8"/>
  <outline>
    <contour>
      <point x="41.7" y="91.0" type="line"/>
      <point x="445.8" y="91.0" type="line"/>
      <point x="242.9" y="464.0" type="line"/>
    </contour>
  </outline>
</glyph>
<glyph name="f_l" format="2">
  <advance width="548.14"/>
  <outline>
    <contour>
      <point x="-3.150000000000002" y="522.8" type="line"/>
      <point x="-3.150000000000002" y="478.0" type="line"/>
      <point x="298.28499999999997" y="478.0" type="line"/>
      <point x="298.28499999999997" y="522.8" type="line"/>
    </contour>
    <contour>
      <point x="316.365" y="62.8" type="line" smooth="yes"/>
      <point x="316.365" y="41.0"/>
      <point x="307.56545454545454" y="37.2"/>
      <point x="300.815" y="37.2" type="curve" smooth="yes"/>
      <point x="299.86" y="37.2" type="line"/>
      <point x="299.86" y="0.0" type="line"/>
      <point x="540.1700000000001" y="0.0" type="line"/>
      <point x="540.1700000000001" y="37.2" type="line"/>
      <point x="539.3199999999999" y="37.2" type="line" smooth="yes"/>
      <point x="528.37" y="37.2"/>
      <point x="519.595" y="41.0"/>
      <point x="519.595" y="62.8" type="curve"/>
      <point x="519.595" y="750.0" type="line"/>
      <point x="298.1" y="750.0" type="line"/>
      <point x="316.365" y="706.6" type="line"/>
    </contour>
    <contour>
      <point x="270.925" y="0.0" type="line"/>
      <point x="270.925" y="37.2" type="line"/>
      <point x="268.97" y="37.2" type="line" smooth="yes"/>
      <point x="261.30999999999995" y="37.2"/>
      <point x="249.325" y="39.4"/>
      <point x="249.325" y="48.400000000000006" type="curve" smooth="yes"/>
      <point x="249.325" y="615.0" type="line" smooth="yes"/>
      <point x="249.325" y="683.2"/>
      <point x="260.01" y="712.8"/>
      <point x="293.12" y="712.8" type="curve" smooth="yes"/>
      <point x="313.925" y="712.8"/>
      <point x="326.3037692328228" y="699.0874546256232"/>
      <point x="330.12" y="689.2" type="curve"/>
      <point x="411.91999999999996" y="723.6" type="line"/>
      <point x="384.1460542744575" y="739.3839811219278"/>
      <point x="327.645" y="759.6"/>
      <point x="253.1" y="759.6" type="curve" smooth="yes"/>
      <point x="148.665" y="759.6"/>
      <point x="47.245" y="702.791961722488"/>
      <point x="47.245" y="551.8" type="curve" smooth="yes"/>
      <point x="47.245" y="66.0" type="line" smooth="yes"/>
      <point x="47.245" y="44.2"/>
      <point x="37.815000000000005" y="37.2"/>
      <point x="19.77" y="37.2" type="curve" smooth="yes"/>
      <point x="10.420000000000002" y="37.2" type="line"/>
      <point x="10.420000000000002" y="0.0" type="line"/>
    </contour>
  </outline>
</glyph>
<glyph name="lira.alt" format="2">
  <advance width="422.8"/>
  <outline>
    <contour>
      <point x="403.33" y="0.0" type="line"/>
      <point x="403.33" y="231.0" type="line"/>
      <point x="325.485" y="231.0" type="line"/>
      <point x="321.16" y="182.20000000000002" type="line" smooth="yes"/>
      <point x="316.56" y="145.2"/>
      <point x="297.55" y="136.8"/>
      <point x="240.82999999999998" y="136.8" type="curve" smooth="yes"/>
      <point x="177.195" y="136.8" type="line"/>
      <point x="108.01" y="85.0" type="line"/>
      <point x="223.265" y="123.60000000000001"/>
      <point x="243.875" y="194.4"/>
      <point x="243.875" y="272.6" type="curve" smooth="yes"/>
      <point x="243.875" y="376.6"/>
      <point x="213.78999999999996" y="456.2"/>
      <point x="213.78999999999996" y="541.8" type="curve" smooth="yes"/>
      <point x="213.78999999999996" y="601.2"/>
      <point x="225.9" y="634.0"/>
      <point x="246.005" y="634.0" type="curve" smooth="yes"/>
      <point x="256.69" y="634.0"/>
      <point x="267.075" y="621.8"/>
      <point x="272.355" y="603.6" type="curve"/>
      <point x="295.055" y="612.0"/>
      <point x="299.035" y="640.0"/>
      <point x="258.02500000000003" y="640.4" type="curve"/>
      <point x="258.02500000000003" y="554.2" type="line"/>
      <point x="394.83000000000004" y="554.2" type="line"/>
      <point x="394.83000000000004" y="665.6" type="line"/>
      <point x="372.785" y="688.4"/>
      <point x="317.25" y="720.0"/>
      <point x="232.02" y="720.0" type="curve" smooth="yes"/>
      <point x="99.02000000000001" y="720.0"/>
      <point x="32.260000000000005" y="633.6"/>
      <point x="32.260000000000005" y="527.8" type="curve" smooth="yes"/>
      <point x="32.260000000000005" y="400.2"/>
      <point x="99.87" y="344.0"/>
      <point x="99.87" y="238.2" type="curve" smooth="yes"/>
      <point x="99.87" y="174.4"/>
      <point x="71.9" y="134.0"/>
      <point x="12.719999999999999" y="113.2" type="curve"/>
      <point x="12.719999999999999" y="0.0" type="line"/>
    </contour>
    <contour>
      <point x="11.835" y="489.4" type="line"/>
      <point x="11.835" y="416.6" type="line"/>
      <point x="340.33" y="416.6" type="line"/>
      <point x="340.33" y="489.4" type="line"/>
    </contour>
    <contour>
      <point x="11.835" y="346.6" type="line"/>
      <point x="11.835" y="273.8" type="line"/>
      <point x="340.33" y="273.8" type="line"/>
      <point x="340.33" y="346.6" type="line"/>
    </contour>
  </outline>
</glyph>
<glyph name="nine.lin" format="2">
  <advance width="422.8"/>
  <outline>
    <contour>
      <point x="46.945" y="62.800000000000004" type="line"/>
      <point x="155.695" y="80.80000000000001"/>
      <point x="229.78" y="197.4"/>
      <point x="229.78" y="434.0" type="curve" smooth="yes"/>
      <point x="229.78" y="596.6"/>
      <point x="225.8" y="642.0"/>
      <point x="213.975" y="642.0" type="curve" smooth="yes"/>
      <point x="200.07" y="642.0"/>
      <point x="196.54999999999998" y="596.0"/>
      <point x="196.54999999999998" y="495.0" type="curve" smooth="yes"/>
      <point x="196.54999999999998" y="406.6"/>
      <point x="196.205" y="356.6"/>
      <point x="219.15" y="356.6" type="curve" smooth="yes"/>
      <point x="233.09" y="356.6"/>
      <point x="245.075" y="395.4"/>
      <point x="259.14" y="445.4" type="curve"/>
      <point x="259.29" y="443.2"/>
      <point x="263.2" y="381.4"/>
      <point x="262.855" y="380.2" type="curve"/>
      <point x="251.63" y="332.0"/>
      <point x="227.72" y="278.2"/>
      <point x="162.685" y="278.2" type="curve" smooth="yes"/>
      <point x="71.59" y="278.2"/>
      <point x="9.580000000000002" y="349.8"/>
      <point x="9.580000000000002" y="489.4" type="curve" smooth="yes"/>
      <point x="9.580000000000002" y="632.0"/>
      <point x="88.22" y="720.0"/>
      <point x="208.685" y="720.0" type="curve" smooth="yes"/>
      <point x="343.28499999999997" y="720.0"/>
      <point x="414.3" y="628.4"/>
      <point x="414.3" y="425.2" type="curve" smooth="yes"/>
      <point x="414.3" y="182.4"/>
      <point x="269.155" y="10.4"/>
      <point x="58.63" y="-14.2" type="curve"/>
    </contour>
  </outline>
</glyph>
<glyph name="peseta.proportional" format="2">
  <advance width="674.955"/>
  <outline>
    <contour>
      <point x="17.470000000000002" y="0.0" type="line"/>
      <point x="261.805" y="0.0" type="line"/>
      <point x="261.805" y="71.6" type="line"/>
      <point x="247.66" y="71.6" type="line" smooth="yes"/>
      <point x="236.125" y="71.6"/>
      <point x="222.53" y="74.6"/>
      <point x="222.53" y="84.80000000000001" type="curve" smooth="yes"/>
      <point x="222.53" y="265.0" type="line"/>
      <point x="238.39" y="265.0" type="line" smooth="yes"/>
      <point x="374.39764150945996" y="265.0"/>
      <point x="443.315" y="369.6"/>
      <point x="443.315" y="491.0" type="curve" smooth="yes"/>
      <point x="443.315" y="625.2"/>
      <point x="370.89491379327" y="710.0"/>
      <point x="216.24" y="710.0" type="curve" smooth="yes"/>
      <point x="17.470000000000002" y="710.0" type="line"/>
      <point x="17.470000000000002" y="638.4" type="line"/>
      <point x="25.865" y="638.4" type="line" smooth="yes"/>
      <point x="42.540000000000006" y="638.4"/>
      <point x="54.180000000000014" y="631.4"/>
      <point x="54.180000000000014" y="602.4" type="curve" smooth="yes"/>
      <point x="54.180000000000014" y="107.6" type="line" smooth="yes"/>
      <point x="54.180000000000014" y="78.6"/>
      <point x="42.49500000000001" y="71.6"/>
      <point x="25.865" y="71.6" type="curve" smooth="yes"/>
      <point x="17.470000000000002" y="71.6" type="line"/>
    </contour>
    <contour>
      <point x="233.905" y="623.0" type="line" smooth="yes"/>
      <point x="270.42876712342" y="623.0"/>
      <point x="283.29" y="579.0"/>
      <point x="283.29" y="490.0" type="curve" smooth="yes"/>
      <point x="283.29" y="401.4"/>
      <point x="269.28846153855" y="351.8"/>
      <point x="229.5" y="351.8" type="curve" smooth="yes"/>
      <point x="222.53" y="351.8" type="line"/>
      <point x="222.53" y="623.0" type="line"/>
    </contour>
    <contour>
      <point x="412.0" y="426.0" type="line"/>
      <point x="665.87" y="426.0" type="line"/>
      <point x="665.87" y="510.0" type="line"/>
      <point x="535.79" y="510.0" type="line"/>
      <point x="475.725" y="568.8" type="line"/>
      <point x="475.725" y="516.6"/>
      <point x="464.96999999999997" y="503.0"/>
      <point x="438.83" y="503.0" type="curve" smooth="yes"/>
      <point x="426.72" y="503.0" type="line"/>
    </contour>
    <contour>
      <point x="621.615" y="136.2" type="curve"/>
      <point x="621.615" y="647.8" type="line"/>
      <point x="475.725" y="647.8" type="line"/>
      <point x="475.725" y="505.0" type="line"/>
      <point x="456.90999999999997" y="465.2" type="line"/>
      <point x="456.90999999999997" y="135.6" type="line" smooth="yes"/>
      <point x="456.90999999999997" y="30.0"/>
      <point x="516.435" y="-10.8"/>
      <point x="599.64" y="-10.8" type="curve" smooth="yes"/>
      <point x="633.565" y="-10.8"/>
      <point x="652.265" y="-6.2"/>
      <point x="665.87" y="0.6000000000000001" type="curve"/>
      <point x="665.87" y="86.4" type="line"/>
      <point x="661.615" y="85.2"/>
      <point x="653.645" y="81.0"/>
      <point x="647.17" y="81.0" type="curve" smooth="yes"/>
      <point x="630.54" y="81.0"/>
      <point x="621.615" y="96.4"/>
    </contour>
  </outline>
</glyph>
<glyph name="zero.slash" format="2">
  <advance width="422.8"/>
  <outline>
    <contour>
      <point x="127.745" y="135.0" type="line"/>
      <point x="292.295" y="377.8" type="line"/>
      <point x="294.90500000000003" y="473.0" type="line"/>
      <point x="130.7" y="229.60000000000002" type="line"/>
    </contour>
    <contour>
      <point x="211.4" y="-10.8" type="curve" smooth="yes"/>
      <point x="331.475" y="-10.8"/>
      <point x="416.405" y="108.8"/>
      <point x="416.405" y="304.2" type="curve" smooth="yes"/>
      <point x="416.405" y="499.6"/>
      <point x="331.475" y="619.0"/>
      <point x="211.4" y="619.0" type="curve" smooth="yes"/>
      <point x="91.325" y="619.0"/>
      <point x="6.395000000000003" y="499.6"/>
      <point x="6.395000000000003" y="304.2" type="curve" smooth="yes"/>
      <point x="6.395000000000003" y="108.8"/>
      <point x="91.325" y="-10.8"/>
    </contour>
    <contour>
      <point x="211.4" y="71.2" type="curve" smooth="yes"/>
      <point x="187.670625" y="71.2"/>
      <point x="183.93499999999997" y="122.0"/>
      <point x="183.93499999999997" y="304.2" type="curve" smooth="yes"/>
      <point x="183.93499999999997" y="486.4"/>
      <point x="187.670625" y="537.0"/>
      <point x="211.4" y="537.0" type="curve" smooth="yes"/>
      <point x="235.129375" y="537.0"/>
      <point x="238.865" y="486.4"/>
      <point x="238.865" y="304.2" type="curve" smooth="yes"/>
      <point x="238.865" y="122.0"/>
      <point x="235.129375" y="71.2"/>
    </contour>
  </outline>
</glyph>
